<svg width="50" height="30" viewBox="0 0 50 30" fill="none" xmlns="http://www.w3.org/2000/svg">
<g clip-path="url(#clip0_57_1453)">
<path d="M28.453 1.20593V5.18721C28.453 5.85213 27.9205 6.39315 27.2661 6.39315H15.0272C14.3728 6.39315 13.8403 6.93418 13.8403 7.5991V12.4601C13.8403 13.125 14.3728 13.666 15.0272 13.666H29.5098H48.8131C50.0244 13.666 50.4552 12.0347 49.4065 11.4193L30.2292 0.16518C29.4407 -0.297375 28.453 0.280819 28.453 1.21006V1.20593Z" fill="#EDA63B"/>
<path d="M21.5511 28.7941V24.8128C21.5511 24.1479 22.0835 23.6068 22.7379 23.6068H34.9768C35.6312 23.6068 36.1637 23.0658 36.1637 22.4009V17.5399C36.1637 16.875 35.6312 16.334 34.9768 16.334H20.4942H1.19092C-0.0203606 16.334 -0.45122 17.9653 0.597475 18.5807L19.7748 29.8307C20.5633 30.2932 21.5511 29.715 21.5511 28.7858V28.7941Z" fill="#EDA63B"/>
</g>
<defs>
<clipPath id="clip0_57_1453">
<rect width="50" height="30" fill="white"/>
</clipPath>
</defs>
</svg>
