<svg width="18" height="18" viewBox="0 0 18 18" fill="none" xmlns="http://www.w3.org/2000/svg">
<path fill-rule="evenodd" clip-rule="evenodd" d="M3.01818 6.75L3 6.69824C2.59529 5.53812 2.25 3.9525 2.25 3C2.25 2.5875 2.5875 2.25 3 2.25C3 2.25 5.25 2.25 5.25 2.25C6.07843 2.25 6.75 2.92157 6.75 3.75V5.25C6.75 6.07843 6.07843 6.75 5.25 6.75H4.62228C5.83992 9.7581 8.2419 12.1601 11.25 13.3777V12.75C11.25 11.9216 11.9216 11.25 12.75 11.25H14.25C15.0784 11.25 15.75 11.9216 15.75 12.75V15C15.75 15.3375 15.3375 15.75 15 15.75C13.7059 15.75 12.4205 15.4083 11.25 15C7.41414 13.626 4.37396 10.5859 3.01818 6.75Z" fill="black"/>
</svg>
