<svg width="20" height="20" viewBox="0 0 20 20" fill="none" xmlns="http://www.w3.org/2000/svg">
<path fill-rule="evenodd" clip-rule="evenodd" d="M10 17.5C7.23858 17.5 5 10.718 5 7.79412C5 4.87026 7.23858 2.5 10 2.5C12.7614 2.5 15 4.87026 15 7.79412C15 10.718 12.7614 17.5 10 17.5ZM10 15.8333C10.3638 15.8333 11.2321 14.8441 12.0095 13.0735C12.7976 11.2784 13.3333 9.06137 13.3333 7.79412C13.3333 5.7701 11.819 4.16667 10 4.16667C8.18103 4.16667 6.66667 5.7701 6.66667 7.79412C6.66667 9.06137 7.20243 11.2784 7.99054 13.0735C8.76788 14.8441 9.63616 15.8333 10 15.8333ZM11.6667 7.5C11.6667 8.42048 10.9205 9.16667 10 9.16667C9.07952 9.16667 8.33333 8.42048 8.33333 7.5C8.33333 6.57953 9.07952 5.83333 10 5.83333C10.9205 5.83333 11.6667 6.57953 11.6667 7.5Z" fill="black"/>
</svg>
