<svg width="164" height="94" viewBox="0 0 164 94" fill="none" xmlns="http://www.w3.org/2000/svg">
<path d="M34.4431 92.0702L5.53257 74.8042C3.34323 73.4967 3.68013 70.227 6.09008 69.3934L79.1281 44.1286C79.375 44.0432 79.632 43.9905 79.8925 43.9716L108.689 41.8899C111.825 41.6632 113.153 45.8004 110.471 47.4412L37.5469 92.0537C36.5958 92.6355 35.4004 92.6419 34.4431 92.0702Z" fill="#131621" stroke="black" stroke-width="3"/>
<path d="M34.5127 90.0765L5.75285 72.9633C3.8169 71.8113 3.79397 69.0162 5.71075 67.8326L78.3633 22.9707C79.3272 22.3755 80.5443 22.374 81.5096 22.967L110.321 40.6636C112.231 41.8372 112.226 44.6157 110.311 45.7821L37.6072 90.0606C36.6582 90.6385 35.4675 90.6447 34.5127 90.0765Z" fill="white" stroke="black" stroke-width="3"/>
<path d="M87 32L94.5 36.5" stroke="black" stroke-width="2" stroke-linecap="round"/>
<path d="M127 4L139 11" stroke="#4F96EA" stroke-width="3" stroke-linecap="round"/>
<path d="M100 16L115 25" stroke="#4F96EA" stroke-width="3" stroke-linecap="round"/>
<mask id="path-6-inside-1_41_2471" fill="white">
<path d="M140.616 11.5013C140.696 10.7533 140.154 10.0785 139.403 10.0379C134.217 9.75757 129.054 11.0369 124.587 13.7269C120.12 16.4169 116.574 20.382 114.397 25.0969C114.081 25.7798 114.424 26.5742 115.123 26.8535C115.821 27.1327 116.61 26.7908 116.93 26.1099C118.884 21.9458 122.034 18.444 125.992 16.0605C129.95 13.677 134.519 12.5306 139.113 12.7507C139.865 12.7867 140.536 12.2493 140.616 11.5013Z"/>
</mask>
<path d="M140.616 11.5013C140.696 10.7533 140.154 10.0785 139.403 10.0379C134.217 9.75757 129.054 11.0369 124.587 13.7269C120.12 16.4169 116.574 20.382 114.397 25.0969C114.081 25.7798 114.424 26.5742 115.123 26.8535C115.821 27.1327 116.61 26.7908 116.93 26.1099C118.884 21.9458 122.034 18.444 125.992 16.0605C129.95 13.677 134.519 12.5306 139.113 12.7507C139.865 12.7867 140.536 12.2493 140.616 11.5013Z" fill="#D9D9D9" stroke="#4F96EA" stroke-width="6" mask="url(#path-6-inside-1_41_2471)"/>
<mask id="path-7-inside-2_41_2471" fill="white">
<path d="M146.439 36.6864C147.23 37.0279 148.152 36.6648 148.446 35.8548C149.745 32.2687 150.241 28.4343 149.891 24.6235C149.541 20.8127 148.355 17.1327 146.425 13.843C145.989 13.0999 145.016 12.9109 144.3 13.3906C143.585 13.8704 143.398 14.8371 143.828 15.5837C145.471 18.4373 146.482 21.6176 146.784 24.9087C147.086 28.1998 146.671 31.511 145.575 34.6159C145.288 35.4283 145.647 36.345 146.439 36.6864Z"/>
</mask>
<path d="M146.439 36.6864C147.23 37.0279 148.152 36.6648 148.446 35.8548C149.745 32.2687 150.241 28.4343 149.891 24.6235C149.541 20.8127 148.355 17.1327 146.425 13.843C145.989 13.0999 145.016 12.9109 144.3 13.3906C143.585 13.8704 143.398 14.8371 143.828 15.5837C145.471 18.4373 146.482 21.6176 146.784 24.9087C147.086 28.1998 146.671 31.511 145.575 34.6159C145.288 35.4283 145.647 36.345 146.439 36.6864Z" fill="#D9D9D9" stroke="#4F96EA" stroke-width="6" mask="url(#path-7-inside-2_41_2471)"/>
<mask id="path-8-inside-3_41_2471" fill="white">
<path d="M132.316 29.4567C133.173 29.5433 133.943 28.9184 133.978 28.0576C134.115 24.7061 133.602 21.3596 132.467 18.2031C132.175 17.3924 131.253 17.0271 130.461 17.3667C129.67 17.7063 129.308 18.6221 129.593 19.4352C130.528 22.1021 130.96 24.9192 130.868 27.7436C130.84 28.6047 131.459 29.3701 132.316 29.4567Z"/>
</mask>
<path d="M132.316 29.4567C133.173 29.5433 133.943 28.9184 133.978 28.0576C134.115 24.7061 133.602 21.3596 132.467 18.2031C132.175 17.3924 131.253 17.0271 130.461 17.3667C129.67 17.7063 129.308 18.6221 129.593 19.4352C130.528 22.1021 130.96 24.9192 130.868 27.7436C130.84 28.6047 131.459 29.3701 132.316 29.4567Z" fill="#D9D9D9" stroke="#4F96EA" stroke-width="6" mask="url(#path-8-inside-3_41_2471)"/>
<mask id="path-9-inside-4_41_2471" fill="white">
<path d="M124.123 1.65237C124.198 0.794061 123.562 0.0326805 122.701 0.00943653C117.615 -0.127825 112.588 1.23051 108.25 3.93318C103.913 6.63585 100.478 10.5502 98.3601 15.1762C98.0014 15.9596 98.4049 16.8654 99.2084 17.1765C100.012 17.4875 100.91 17.0855 101.276 16.3051C103.145 12.3083 106.136 8.92638 109.9 6.5812C113.664 4.23602 118.018 3.04108 122.43 3.12402C123.291 3.14021 124.048 2.51068 124.123 1.65237Z"/>
</mask>
<path d="M124.123 1.65237C124.198 0.794061 123.562 0.0326805 122.701 0.00943653C117.615 -0.127825 112.588 1.23051 108.25 3.93318C103.913 6.63585 100.478 10.5502 98.3601 15.1762C98.0014 15.9596 98.4049 16.8654 99.2084 17.1765C100.012 17.4875 100.91 17.0855 101.276 16.3051C103.145 12.3083 106.136 8.92638 109.9 6.5812C113.664 4.23602 118.018 3.04108 122.43 3.12402C123.291 3.14021 124.048 2.51068 124.123 1.65237Z" fill="#D9D9D9" stroke="#4F96EA" stroke-width="6" mask="url(#path-9-inside-4_41_2471)"/>
<path d="M131.743 27.5L124.977 23.5596C124.249 23.1354 123.355 23.7472 123.486 24.5797L127.33 48.9207C127.421 49.5006 127.99 49.8772 128.56 49.7348L155.158 43.0855C156.022 42.8695 156.194 41.7163 155.43 41.2579L150 38" stroke="#4F96EA" stroke-width="3" stroke-linecap="round"/>
</svg>
